<svg xmlns="http://www.w3.org/2000/svg" width="1600" height="1000" viewBox="0 0 1600 1000" role="img" aria-label="Minh họa chiến thắng Điện Biên Phủ">
  <defs>
    <linearGradient id="sky" x1="0" y1="0" x2="0" y2="1">
      <stop offset="0" stop-color="#fff7ed" />
      <stop offset="1" stop-color="#fee2e2" />
    </linearGradient>
    <linearGradient id="land" x1="0" y1="0" x2="1" y2="0">
      <stop offset="0" stop-color="#dc2626" stop-opacity="0.25" />
      <stop offset="1" stop-color="#d97706" stop-opacity="0.25" />
    </linearGradient>
  </defs>
  <rect width="1600" height="1000" fill="url(#sky)" />
  <path d="M0 720c260-120 520-160 780-120 250 40 520 160 820 260v140H0z" fill="url(#land)" />

  <!-- Flags -->
  <g opacity="0.2" fill="#111827">
    <path d="M380 480v240h-18V480z" />
    <path d="M362 485c70-30 120-20 150 0-28 40-90 58-150 36z" />
    <path d="M1220 470v250h-18V470z" />
    <path d="M1202 475c70-30 120-20 150 0-28 40-90 58-150 36z" />
  </g>

  <g font-family="system-ui, -apple-system, Segoe UI, Roboto, sans-serif" text-anchor="middle" fill="#111827">
    <text x="800" y="160" font-size="54" font-weight="800" opacity="0.78">Điện Biên Phủ</text>
    <text x="800" y="212" font-size="22" opacity="0.6">Chiến thắng lịch sử • 1954</text>
  </g>
</svg>
