<svg xmlns="http://www.w3.org/2000/svg" width="1600" height="1000" viewBox="0 0 1600 1000" role="img" aria-label="Minh họa Hồ Chí Minh với bộ đội">
  <defs>
    <linearGradient id="g" x1="0" y1="0" x2="1" y2="1">
      <stop offset="0" stop-color="#fee2e2" />
      <stop offset="1" stop-color="#fde68a" />
    </linearGradient>
  </defs>
  <rect width="1600" height="1000" fill="url(#g)" />

  <!-- Badges -->
  <g opacity="0.16" fill="#d97706">
    <path d="M250 240h160v160H250z" />
    <path d="M1190 260h180v180h-180z" />
  </g>

  <!-- Figures -->
  <g opacity="0.22" fill="#111827">
    <path d="M520 420c-56 0-102 46-102 102 0 40 24 76 60 92-12 14-20 32-20 52v130h124V666c0-20-8-38-20-52 36-16 60-52 60-92 0-56-46-102-102-102z" />
    <path d="M800 360c-66 0-120 54-120 120 0 48 30 90 74 108-14 16-24 36-24 58v162h140V646c0-22-10-42-24-58 44-18 74-60 74-108 0-66-54-120-120-120z" />
    <path d="M1080 420c-56 0-102 46-102 102 0 40 24 76 60 92-12 14-20 32-20 52v130h124V666c0-20-8-38-20-52 36-16 60-52 60-92 0-56-46-102-102-102z" />
  </g>

  <g font-family="system-ui, -apple-system, Segoe UI, Roboto, sans-serif" text-anchor="middle" fill="#111827">
    <text x="800" y="160" font-size="54" font-weight="800" opacity="0.78">Bác với bộ đội</text>
    <text x="800" y="212" font-size="22" opacity="0.6">Động viên tinh thần chiến sĩ</text>
  </g>
</svg>
